<svg data-name="Layer 1" xmlns="http://www.w3.org/2000/svg" viewBox="0 0 300 155.9579">
  <defs>
    <style>
      .a8d9d8aa-a5bd-4503-bad9-ef94845e0936 {
        fill: #566057;
      }

      .a0a3fb30-edd9-476b-942f-0319f8ebeccb {
        fill: #29382a;
      }
    </style>
  </defs>
  <g>
    <g>
      <path class="a8d9d8aa-a5bd-4503-bad9-ef94845e0936" d="M148.7577,30.5867,131.3145,78.51l-.0629.175a7.3588,7.3588,0,0,1-6.2717,4.4718h-.3007L126.37,78.51l19.9155-54.7157Z"/>
      <polygon class="a8d9d8aa-a5bd-4503-bad9-ef94845e0936" points="142.576 13.603 145.048 20.395 122.205 83.157 117.261 83.157 142.576 13.603"/>
      <polygon class="a8d9d8aa-a5bd-4503-bad9-ef94845e0936" points="138.868 3.413 141.341 10.207 114.788 83.157 109.844 83.157 138.868 3.413"/>
      <polygon class="a8d9d8aa-a5bd-4503-bad9-ef94845e0936" points="111.079 72.964 108.607 79.756 79.577 0 84.522 0 111.079 72.964"/>
      <polygon class="a8d9d8aa-a5bd-4503-bad9-ef94845e0936" points="114.787 62.774 112.315 69.568 86.995 0 91.94 0 114.787 62.774"/>
      <path class="a8d9d8aa-a5bd-4503-bad9-ef94845e0936" d="M118.4963,52.5837l-2.4724,6.7925L96.1043,4.6481,94.4123.0014h.298a7.351,7.351,0,0,1,6.3332,4.6331l.0055.0136Z"/>
      <polygon class="a8d9d8aa-a5bd-4503-bad9-ef94845e0936" points="220.423 0 191.39 79.767 188.918 72.975 215.478 0 220.423 0"/>
      <polygon class="a8d9d8aa-a5bd-4503-bad9-ef94845e0936" points="213.006 0 187.681 69.579 185.209 62.786 208.061 0 213.006 0"/>
      <path class="a8d9d8aa-a5bd-4503-bad9-ef94845e0936" d="M205.5877.0014l-1.692,4.6467L183.972,59.3871l-2.471-6.7911,17.45-47.9479.06-.1653A7.3576,7.3576,0,0,1,205.287.0014Z"/>
      <path class="a8d9d8aa-a5bd-4503-bad9-ef94845e0936" d="M175.3222,83.1567h-.2966a7.3578,7.3578,0,0,1-6.2759-4.4814c-.0218-.0547-.0423-.1107-.0629-.1654L140.1106,0h4.9447L173.63,78.51Z"/>
      <polygon class="a8d9d8aa-a5bd-4503-bad9-ef94845e0936" points="182.739 83.157 177.795 83.157 147.528 0 152.472 0 182.739 83.157"/>
      <path class="a8d9d8aa-a5bd-4503-bad9-ef94845e0936" d="M190.1563,83.1567h-4.9447L156.6367,4.6481,154.9447.0014h.302a7.3563,7.3563,0,0,1,6.29,4.52l.0027.0069.0438.12Z"/>
    </g>
    <g>
      <path class="a0a3fb30-edd9-476b-942f-0319f8ebeccb" d="M53.6619,121.0061l-11.421,34.46H35.4478l-8.5164-25.5-8.6647,25.5H11.4241L.0032,121.0061H6.6494l8.5652,26.19,8.91-26.19h5.9071l8.7135,26.3372,8.8122-26.3372Z"/>
      <path class="a0a3fb30-edd9-476b-942f-0319f8ebeccb" d="M88.2685,150.1v5.3656H62.4241v-34.46H87.58v5.3662H68.8239v8.9592h16.639v5.2674H68.8239V150.1Z"/>
      <path class="a0a3fb30-edd9-476b-942f-0319f8ebeccb" d="M101.93,154.8262a16.0709,16.0709,0,0,1-5.8831-3.0033l2.2154-4.9717a17.4488,17.4488,0,0,0,5.1934,2.7322,18.881,18.881,0,0,0,6.1782,1.0583,10.6665,10.6665,0,0,0,5.7348-1.2312,3.7277,3.7277,0,0,0,1.8956-3.249,3.1467,3.1467,0,0,0-1.0583-2.4364,7.4452,7.4452,0,0,0-2.6828-1.5017q-1.6245-.5408-4.4308-1.2305a51.3853,51.3853,0,0,1-6.3752-1.8709,10.4842,10.4842,0,0,1-4.1844-2.9292,7.8875,7.8875,0,0,1-1.7474-5.39,9.1921,9.1921,0,0,1,1.5511-5.1933,10.4881,10.4881,0,0,1,4.6765-3.7164,18.9456,18.9456,0,0,1,7.6545-1.3788,24.7441,24.7441,0,0,1,6.2028.7879,17.1645,17.1645,0,0,1,5.2675,2.2641l-2.0184,4.9724a19.9353,19.9353,0,0,0-4.726-2.0185,17.6829,17.6829,0,0,0-4.7747-.6891,9.9731,9.9731,0,0,0-5.6367,1.28,3.9487,3.9487,0,0,0-1.8461,3.3966,3.0719,3.0719,0,0,0,1.0582,2.4124,7.6386,7.6386,0,0,0,2.6828,1.4762q1.6247.5429,4.4309,1.2313a46.5966,46.5966,0,0,1,6.301,1.8455,10.8065,10.8065,0,0,1,4.2092,2.9292,7.7245,7.7245,0,0,1,1.7473,5.3168,9.0774,9.0774,0,0,1-1.55,5.1687,10.5482,10.5482,0,0,1-4.7012,3.6923,19.1427,19.1427,0,0,1-7.68,1.3781A26.2959,26.2959,0,0,1,101.93,154.8262Z"/>
      <path class="a0a3fb30-edd9-476b-942f-0319f8ebeccb" d="M139.9582,126.4211H128.5373v-5.415H157.779v5.415H146.3581v29.0447h-6.4Z"/>
      <path class="a0a3fb30-edd9-476b-942f-0319f8ebeccb" d="M191.9917,150.1v5.3656H166.1472v-34.46h25.1554v5.3662H172.5464v8.9592h16.639v5.2674h-16.639V150.1Z"/>
      <path class="a0a3fb30-edd9-476b-942f-0319f8ebeccb" d="M225.22,155.4658l-7.04-10.0915a13.1923,13.1923,0,0,1-1.3294.0487h-7.7779v10.0428h-6.3992v-34.46h14.1771a19.0858,19.0858,0,0,1,7.8027,1.4769,11.3475,11.3475,0,0,1,5.0952,4.2339,11.8418,11.8418,0,0,1,1.7721,6.5474,11.6826,11.6826,0,0,1-1.8949,6.695,11.28,11.28,0,0,1-5.44,4.1844l7.9255,11.3221Zm-2.3135-27.272q-2.1673-1.7727-6.3505-1.7727h-7.4828v13.7352h7.4828q4.1835,0,6.3505-1.7968a6.2506,6.2506,0,0,0,2.166-5.0952A6.178,6.178,0,0,0,222.9067,128.1938Z"/>
      <path class="a0a3fb30-edd9-476b-942f-0319f8ebeccb" d="M242.2031,121.0061h6.4v29.0447H266.62v5.415H242.2031Z"/>
      <path class="a0a3fb30-edd9-476b-942f-0319f8ebeccb" d="M286.5087,143.3064v12.1594h-6.4v-12.06l-13.5375-22.3992h6.8425l10.0916,16.7872,10.19-16.7872h6.301Z"/>
    </g>
  </g>
</svg>
