<svg id="e583ab7b-162d-4c85-9994-3d45bdfa409c" data-name="Layer 1" xmlns="http://www.w3.org/2000/svg" viewBox="0 0 300 300">
  <defs>
    <style>
      .bb15791e-7639-453a-b9d7-ef781463db29 {
        fill: #29382a;
      }
    </style>
  </defs>
  <title>mba-logo</title>
  <g>
    <g>
      <path class="bb15791e-7639-453a-b9d7-ef781463db29" d="M196.45,122.3743l-19.26,28.3231a16.3,16.3,0,0,0-3.3988-2.2658c6.7975-5.6646,6.7975-10.1963,4.5317-18.1268s-19.26-7.93-19.26-7.93H122.81l-8.5024,34.14-8.4914-34.14H80.8916v57.7792H97.8855V143.9l10.1963,36.2536H120.544L130.74,143.9v36.2536h44.184l13.8144-20.7216,3.18,11.6582h10.1963v9.0634h16.9939V122.3743Zm-49.762,13.4711h12.6466a4.3,4.3,0,0,1,4.3209,4.5317c0,4.5316-5.0586,4.4262-5.0586,4.4262H146.6879Zm13.2789,30.6679H146.6879V145.8572l3.8786,9.38h10.3488s4.9532,1.2647,4.9532,5.691S159.9668,166.5133,159.9668,166.5133Zm42.1477-7.8854h-12.84l12.84-19.26Z"/>
      <g>
        <polygon class="bb15791e-7639-453a-b9d7-ef781463db29" points="103.927 45.369 80.892 68.582 80.892 113.951 103.927 90.106 126.962 113.951 126.962 68.582 103.927 45.369"/>
        <rect class="bb15791e-7639-453a-b9d7-ef781463db29" x="97.4364" y="100.8913" width="12.9279" height="12.9279"/>
        <polygon class="bb15791e-7639-453a-b9d7-ef781463db29" points="196.068 45.369 173.032 68.582 173.032 113.951 196.068 90.106 219.103 113.951 219.103 68.582 196.068 45.369"/>
        <rect class="bb15791e-7639-453a-b9d7-ef781463db29" x="189.4707" y="100.8913" width="12.9279" height="12.9279"/>
        <polygon class="bb15791e-7639-453a-b9d7-ef781463db29" points="149.998 0 126.962 23.212 126.962 68.582 149.998 44.736 173.033 68.582 173.033 23.212 149.998 0"/>
        <rect class="bb15791e-7639-453a-b9d7-ef781463db29" x="143.4539" y="55.5743" width="12.9279" height="12.9279"/>
      </g>
      <rect class="bb15791e-7639-453a-b9d7-ef781463db29" x="80.8916" y="189.2559" width="138.2167" height="9.068"/>
    </g>
    <g>
      <g>
        <path class="bb15791e-7639-453a-b9d7-ef781463db29" d="M6.2326,208.3836h7.1461l3.1858,22.8034h.0912l3.1864-22.8034h7.146v31.8613H22.2545V216.1205h-.0912l-3.6417,24.1244h-4.187L10.693,216.1205h-.0908v24.1244h-4.37Z"/>
        <path class="bb15791e-7639-453a-b9d7-ef781463db29" d="M37.5031,208.3836h6.782l5.1889,31.8613H44.4671l-.91-6.3273v.0918h-5.69l-.9105,6.2355H32.3142Zm5.4621,21.301-2.23-15.7481h-.0907L38.459,229.6846Z"/>
        <path class="bb15791e-7639-453a-b9d7-ef781463db29" d="M53.7983,232.69v-1.8211h4.7336v2.1851c0,2.2758,1.0018,3.0945,2.5944,3.0945s2.5945-.8187,2.5945-3.1863c0-2.64-1.0013-4.3237-4.2784-7.1915-4.1876-3.6864-5.5528-6.2808-5.5528-9.9219,0-5.0074,2.5944-7.9205,7.4646-7.9205s7.2827,2.9131,7.2827,8.0112v1.32H63.9033V215.62c0-2.2758-.91-3.141-2.5037-3.141s-2.5032.8652-2.5032,3.05c0,2.3211,1.0467,4.005,4.3237,6.8727,4.1876,3.6865,5.5075,6.2356,5.5075,10.1953,0,5.1888-2.64,8.1019-7.5554,8.1019S53.7983,237.7865,53.7983,232.69Z"/>
        <path class="bb15791e-7639-453a-b9d7-ef781463db29" d="M78.4239,212.9352H73.1891v-4.5516H88.665v4.5516H83.4308v27.31H78.4239Z"/>
        <path class="bb15791e-7639-453a-b9d7-ef781463db29" d="M93.9911,208.3836h13.6548v4.5516H98.9974v8.4206h6.8733v4.5516H98.9974v9.7859h8.6485v4.5516H93.9911Z"/>
        <path class="bb15791e-7639-453a-b9d7-ef781463db29" d="M113.4272,208.3836h7.4188c5.1889,0,7.4193,2.4119,7.4193,7.3275v1.9572c0,3.2771-1.0466,5.3714-3.277,6.282v.0907c2.5031.7733,3.3224,3.141,3.3224,6.7367v5.5982a9.3834,9.3834,0,0,0,.5466,3.869h-5.0982a9.8115,9.8115,0,0,1-.4547-3.9143v-5.8262c0-2.9584-.8652-3.9143-3.141-3.9143h-1.73v13.6548h-5.0064Zm6.8275,13.6549c1.8659,0,3.0038-.82,3.0038-3.3689v-2.4573c0-2.2758-.7739-3.2771-2.5486-3.2771h-2.2763v9.1033Z"/>
        <path class="bb15791e-7639-453a-b9d7-ef781463db29" d="M144.88,208.3836h7.5554c5.1889,0,7.4193,2.4119,7.4193,7.3275v1.2746c0,3.277-1.0012,5.326-3.2317,6.2355v.0918c2.6852.9105,3.7329,3.2771,3.7329,6.6449V232.69c0,4.9156-2.5944,7.5554-7.6018,7.5554H144.88Zm6.9635,12.9722c1.8665,0,3.0049-.82,3.0049-3.3689v-1.7746c0-2.2758-.7744-3.2771-2.5491-3.2771h-2.413v8.4206Zm.9106,14.3375c1.6839,0,2.5944-.7734,2.5944-3.141v-2.7759c0-2.9584-.9559-3.869-3.2317-3.869H149.886v9.7859Z"/>
        <path class="bb15791e-7639-453a-b9d7-ef781463db29" d="M165.9992,232.69V208.3836h5.0075v24.67c0,2.2758.9559,3.0945,2.549,3.0945s2.548-.8187,2.548-3.0945v-24.67h4.8249V232.69c0,5.097-2.5491,8.01-7.4647,8.01S165.9992,237.7865,165.9992,232.69Z"/>
        <path class="bb15791e-7639-453a-b9d7-ef781463db29" d="M187.3931,208.3836H192.4v31.8613h-5.0064Z"/>
        <path class="bb15791e-7639-453a-b9d7-ef781463db29" d="M199.0454,208.3836h5.0064v27.31h8.2391v4.5516H199.0454Z"/>
        <path class="bb15791e-7639-453a-b9d7-ef781463db29" d="M217.617,208.3836h7.6461c5.0074,0,7.4647,2.7759,7.4647,7.8741v16.1132c0,5.097-2.4573,7.874-7.4647,7.874H217.617Zm7.5554,27.31c1.5931,0,2.5491-.82,2.5491-3.0956V216.03c0-2.2759-.956-3.0946-2.5491-3.0946h-2.5491v22.7581Z"/>
        <path class="bb15791e-7639-453a-b9d7-ef781463db29" d="M239.01,208.3836h13.6548v4.5516h-8.6485v8.4206h6.8728v4.5516h-6.8728v9.7859h8.6485v4.5516H239.01Z"/>
        <path class="bb15791e-7639-453a-b9d7-ef781463db29" d="M258.4454,208.3836h7.4193c5.1889,0,7.4193,2.4119,7.4193,7.3275v1.9572c0,3.2771-1.0477,5.3714-3.2782,6.282v.0907c2.5038.7733,3.3236,3.141,3.3236,6.7367v5.5982a9.3941,9.3941,0,0,0,.5454,3.869h-5.097a9.79,9.79,0,0,1-.4559-3.9143v-5.8262c0-2.9584-.864-3.9143-3.14-3.9143h-1.73v13.6548h-5.0063Zm6.8274,13.6549c1.8664,0,3.0038-.82,3.0038-3.3689v-2.4573c0-2.2758-.7734-3.2771-2.5491-3.2771h-2.2758v9.1033Z"/>
        <path class="bb15791e-7639-453a-b9d7-ef781463db29" d="M278.838,232.69v-1.8211h4.7342v2.1851c0,2.2758,1.0012,3.0945,2.5944,3.0945s2.5944-.8187,2.5944-3.1863c0-2.64-1.0012-4.3237-4.2783-7.1915-4.1876-3.6864-5.554-6.2808-5.554-9.9219,0-5.0074,2.5945-7.9205,7.4647-7.9205s7.2833,2.9131,7.2833,8.0112v1.32h-4.7342V215.62c0-2.2758-.9094-3.141-2.5026-3.141s-2.5037.8652-2.5037,3.05c0,2.3211,1.0466,4.005,4.3237,6.8727,4.1876,3.6865,5.5075,6.2356,5.5075,10.1953,0,5.1888-2.64,8.1019-7.5554,8.1019S278.838,237.7865,278.838,232.69Z"/>
      </g>
      <g>
        <path class="bb15791e-7639-453a-b9d7-ef781463db29" d="M9.7575,252.3718h4.6068l3.5244,21.6431H14.4878l-.6184-4.2982v.0628H10.005l-.6185,4.2354H6.2326Zm3.71,14.47-1.5153-10.6975h-.0617l-1.4838,10.6975Z"/>
        <path class="bb15791e-7639-453a-b9d7-ef781463db29" d="M35.8454,268.8822v-1.2369H39.061V269.13c0,1.5456.68,2.1023,1.7622,2.1023s1.7621-.5567,1.7621-2.164c0-1.7936-.68-2.9379-2.9059-4.8858-2.8447-2.5046-3.7723-4.2662-3.7723-6.74,0-3.4009,1.7627-5.38,5.0709-5.38s4.947,1.9788,4.947,5.4414v.8962H42.7093v-1.1123c0-1.5466-.6184-2.1342-1.7-2.1342s-1.7.5876-1.7,2.0725c0,1.5764.711,2.7207,2.9367,4.6686,2.8447,2.5035,3.7415,4.2353,3.7415,6.9252,0,3.5243-1.7936,5.503-5.1327,5.503S35.8454,272.3448,35.8454,268.8822Z"/>
        <path class="bb15791e-7639-453a-b9d7-ef781463db29" d="M64.3452,268.8822v-1.2369h3.2157V269.13c0,1.5456.68,2.1023,1.7621,2.1023s1.7622-.5567,1.7622-2.164c0-1.7936-.68-2.9379-2.9059-4.8858-2.8447-2.5046-3.7723-4.2662-3.7723-6.74,0-3.4009,1.7627-5.38,5.0709-5.38s4.9469,1.9788,4.9469,5.4414v.8962H71.2092v-1.1123c0-1.5466-.6184-2.1342-1.7-2.1342s-1.7.5876-1.7,2.0725c0,1.5764.711,2.7207,2.9367,4.6686,2.8447,2.5035,3.7415,4.2353,3.7415,6.9252,0,3.5243-1.7936,5.503-5.1327,5.503S64.3452,272.3448,64.3452,268.8822Z"/>
        <path class="bb15791e-7639-453a-b9d7-ef781463db29" d="M93.1852,268.8822V257.5045c0-3.4626,1.8244-5.4414,5.1635-5.4414s5.163,1.9788,5.163,5.4414v11.3777c0,3.4626-1.8239,5.4413-5.163,5.4413S93.1852,272.3448,93.1852,268.8822Zm6.9257.2172v-11.811c0-1.5466-.68-2.1342-1.7622-2.1342s-1.7627.5876-1.7627,2.1342v11.811c0,1.5455.68,2.1331,1.7627,2.1331S100.1109,270.6449,100.1109,269.0994Z"/>
        <path class="bb15791e-7639-453a-b9d7-ef781463db29" d="M122.5813,269.0057V257.381c0-3.3391,1.7313-5.3179,5.0087-5.3179s5.0092,1.9788,5.0092,5.3179v2.2875h-3.2157v-2.5046c0-1.4221-.68-2.01-1.7-2.01s-1.7.5876-1.7,2.01v12.09c0,1.4221.68,1.9788,1.7,1.9788s1.7-.5567,1.7-1.9788v-3.3083h3.2157v3.06c0,3.3391-1.7319,5.3178-5.0092,5.3178S122.5813,272.3448,122.5813,269.0057Z"/>
        <path class="bb15791e-7639-453a-b9d7-ef781463db29" d="M151.6373,252.3718h3.402v21.6431h-3.402Z"/>
        <path class="bb15791e-7639-453a-b9d7-ef781463db29" d="M177.2015,252.3718h4.6069l3.5243,21.6431h-3.4008l-.6185-4.2982v.0628h-3.8649l-.6185,4.2354h-3.1528Zm3.7107,14.47-1.5158-10.6975h-.0617l-1.4839,10.6975Z"/>
        <path class="bb15791e-7639-453a-b9d7-ef781463db29" d="M205.2064,255.464h-3.5551v-3.0922h10.5123v3.0922h-3.5563v18.5509h-3.4009Z"/>
        <path class="bb15791e-7639-453a-b9d7-ef781463db29" d="M230.8,252.3718h3.4009v21.6431H230.8Z"/>
        <path class="bb15791e-7639-453a-b9d7-ef781463db29" d="M253.4886,268.8822V257.5045c0-3.4626,1.8233-5.4414,5.1624-5.4414s5.1636,1.9788,5.1636,5.4414v11.3777c0,3.4626-1.8245,5.4413-5.1636,5.4413S253.4886,272.3448,253.4886,268.8822Zm6.9251.2172v-11.811c0-1.5466-.68-2.1342-1.7627-2.1342s-1.7616.5876-1.7616,2.1342v11.811c0,1.5455.68,2.1331,1.7616,2.1331S260.4137,270.6449,260.4137,269.0994Z"/>
        <path class="bb15791e-7639-453a-b9d7-ef781463db29" d="M283.1007,252.3718h4.2662l3.3083,12.9552h.0617V252.3718h3.0305v21.6431h-3.4935l-4.081-15.7994h-.0617v15.7994h-3.03Z"/>
      </g>
      <g>
        <path class="bb15791e-7639-453a-b9d7-ef781463db29" d="M10.251,296.3574q-2.5094,0-3.4149-1.5222a4.9349,4.9349,0,0,1-.4509-3.6647,7.1141,7.1141,0,0,1,2.0085-3.6525,5.5446,5.5446,0,0,1,4.0713-1.5444q2.5092,0,3.411,1.5444a4.9782,4.9782,0,0,1,.4554,3.6525,7.07,7.07,0,0,1-2.0135,3.6647A5.5722,5.5722,0,0,1,10.251,296.3574Zm3.4105-5.1869a3.3038,3.3038,0,0,0-.12-2.2544,1.6115,1.6115,0,0,0-1.5493-.791,2.5232,2.5232,0,0,0-1.8839.791,4.5091,4.5091,0,0,0-1.08,2.2544,3.3154,3.3154,0,0,0,.12,2.2589,1.6089,1.6089,0,0,0,1.5493.7943,2.5185,2.5185,0,0,0,1.8839-.7943A4.5385,4.5385,0,0,0,13.6615,291.1705Z"/>
        <path class="bb15791e-7639-453a-b9d7-ef781463db29" d="M24.5011,282.7775l-.4464,2.0717c-.1368-.0177-.3723-.0322-.7052-.041a.9987.9987,0,0,0-.7455.2238.9642.9642,0,0,0-.2992.5218q-.0632.2858-.1789.822h1.67l-.3844,1.7947H21.7421l-1.6607,7.8479H17.5456l1.6606-7.8479H17.7871l.3838-1.7947h1.3926l.134-.6248a4.012,4.012,0,0,1,.9821-2.1526,3.6564,3.6564,0,0,1,2.8572-.8741q.2409,0,.4331.0133C24.0979,282.7465,24.2746,282.76,24.5011,282.7775Z"/>
        <path class="bb15791e-7639-453a-b9d7-ef781463db29" d="M31.34,282.8573h2.7054l-1.1516,5.4195,6.2321-5.4195h3.5534l-6.5445,5.4195,4.027,7.7416H36.6259l-2.8483-5.75L32.179,291.617l-.9283,4.4014H28.5453Z"/>
        <path class="bb15791e-7639-453a-b9d7-ef781463db29" d="M43.5992,286.286h2.58l-2.0623,9.7324H41.5364Zm2.83-1.16h-2.58l.5-2.3486h2.58Z"/>
        <path class="bb15791e-7639-453a-b9d7-ef781463db29" d="M56.7958,289.4644l-1.3931,6.554H52.7954l1.25-5.9192a2.4576,2.4576,0,0,0,.0448-1.1787q-.2144-.7512-1.2679-.75a2.2652,2.2652,0,0,0-2.009,1.0979,4.3469,4.3469,0,0,0-.5623,1.4822l-1.1161,5.2678H46.5992l2.0623-9.7146H51.117l-.3035,1.42a5.8568,5.8568,0,0,1,1.161-1.08,3.8037,3.8037,0,0,1,2.1159-.5894,3.1113,3.1113,0,0,1,2.2988.79A2.7684,2.7684,0,0,1,56.7958,289.4644Z"/>
        <path class="bb15791e-7639-453a-b9d7-ef781463db29" d="M64.6343,286.2772a2.27,2.27,0,0,1,1.2053,1.4114l.2947-1.4026h2.4733l-1.9642,9.2328a6.1809,6.1809,0,0,1-1.2319,2.8394A5.7151,5.7151,0,0,1,60.8848,300a4.907,4.907,0,0,1-2.8887-.7312,2.1591,2.1591,0,0,1-.8436-2.188h2.768a.9346.9346,0,0,0,.2143.6426,1.8422,1.8422,0,0,0,1.3123.349,2.3388,2.3388,0,0,0,2.0356-.92,5.4477,5.4477,0,0,0,.7234-1.9831l.1335-.6248a4.2048,4.2048,0,0,1-.9909.9372,3.729,3.729,0,0,1-2.0983.5805,2.9772,2.9772,0,0,1-2.7142-1.3161,4.6875,4.6875,0,0,1-.3567-3.5672,7.39,7.39,0,0,1,1.8523-3.647,4.4791,4.4791,0,0,1,3.38-1.4779A2.96,2.96,0,0,1,64.6343,286.2772Zm.4553,4.83A2.9587,2.9587,0,0,0,64.9561,289a1.5119,1.5119,0,0,0-1.4108-.7235,2.3823,2.3823,0,0,0-2.116,1.26,5.3077,5.3077,0,0,0-.6253,1.6518,3.5051,3.5051,0,0,0-.0266,1.5089,1.4366,1.4366,0,0,0,1.5892,1.2319,2.4425,2.4425,0,0,0,1.6518-.6735A3.8633,3.8633,0,0,0,65.09,291.1074Z"/>
        <path class="bb15791e-7639-453a-b9d7-ef781463db29" d="M79.0717,290.0992a4.5149,4.5149,0,0,0,1.0624-.2238,1.0175,1.0175,0,0,0,.6968-.7234q.1247-.5982-.2415-.8253a2.2888,2.2888,0,0,0-1.1693-.2282,1.9323,1.9323,0,0,0-1.3748.4464,2.5081,2.5081,0,0,0-.5451.893h-2.455a4.7778,4.7778,0,0,1,1.16-2.0983,5.0713,5.0713,0,0,1,3.7412-1.2851,5.3615,5.3615,0,0,1,2.7053.6337q1.1069.6332.7323,2.3929l-.9555,4.4646q-.0981.4637-.2144,1.1245a1.3245,1.3245,0,0,0,.0045.6791.6651.6651,0,0,0,.3079.2947l-.0714.3744h-2.768a2.609,2.609,0,0,1-.0443-.5539,5.8872,5.8872,0,0,1,.0538-.5894,7.2536,7.2536,0,0,1-1.42.9738,4.2651,4.2651,0,0,1-1.9642.4731,2.624,2.624,0,0,1-2.0224-.7545,2.28,2.28,0,0,1-.4066-2.1381,3.6252,3.6252,0,0,1,1.9376-2.599,7.22,7.22,0,0,1,2.3664-.6248Zm1.2951,1.1876a3.3,3.3,0,0,1-.5362.2449,4.7085,4.7085,0,0,1-.714.1739l-.5894.1075a4.44,4.44,0,0,0-1.2319.3478,1.5124,1.5124,0,0,0-.8126,1.0813.9642.9642,0,0,0,.1562.9416,1.1258,1.1258,0,0,0,.817.29,3.0836,3.0836,0,0,0,1.6158-.4819,2.6526,2.6526,0,0,0,1.0984-1.7593Z"/>
        <path class="bb15791e-7639-453a-b9d7-ef781463db29" d="M94.3848,289.4644l-1.3931,6.554H90.3844l1.25-5.9192a2.4579,2.4579,0,0,0,.0449-1.1787q-.2143-.7512-1.268-.75a2.2652,2.2652,0,0,0-2.009,1.0979,4.3489,4.3489,0,0,0-.5623,1.4822l-1.1161,5.2678H84.1883l2.0622-9.7146H88.706l-.3035,1.42a5.8568,5.8568,0,0,1,1.161-1.08,3.8038,3.8038,0,0,1,2.116-.5894,3.1111,3.1111,0,0,1,2.2987.79A2.7684,2.7684,0,0,1,94.3848,289.4644Z"/>
        <path class="bb15791e-7639-453a-b9d7-ef781463db29" d="M103.42,287.518l.9821-4.6419h2.5807l-2.7856,13.1423h-2.4733l.2858-1.3482a4.927,4.927,0,0,1-1.5138,1.2585,3.9851,3.9851,0,0,1-1.8169.3933,2.8524,2.8524,0,0,1-2.5757-1.3793,4.6565,4.6565,0,0,1-.4155-3.5406,7.5817,7.5817,0,0,1,1.9869-3.92,4.66,4.66,0,0,1,3.3706-1.428,2.6966,2.6966,0,0,1,1.4868.3878A2.2972,2.2972,0,0,1,103.42,287.518Zm-.7317,3.7777a2.7759,2.7759,0,0,0-.3573-2.5536,1.588,1.588,0,0,0-1.1876-.4653,2.2511,2.2511,0,0,0-1.8169.8442,4.7831,4.7831,0,0,0-.9688,2.0938,3.5559,3.5559,0,0,0,.0715,2.1559,1.4107,1.4107,0,0,0,1.4374.8087,2.3661,2.3661,0,0,0,1.8169-.8043A4.3157,4.3157,0,0,0,102.6881,291.2957Z"/>
        <path class="bb15791e-7639-453a-b9d7-ef781463db29" d="M114.6433,291.956a2.3577,2.3577,0,0,0,.2055,1.3482,2.32,2.32,0,0,0,2.1249.8121,5.2649,5.2649,0,0,0,1.6252-.2139,2.0009,2.0009,0,0,0,1.4734-1.5266.9019.9019,0,0,0-.3573-1.0092,4.9443,4.9443,0,0,0-1.6606-.616l-1.3305-.3124a7.1155,7.1155,0,0,1-2.6251-1.0092,2.6626,2.6626,0,0,1-.7228-2.8483,4.8854,4.8854,0,0,1,1.91-2.9369,6.4688,6.4688,0,0,1,4.027-1.17,4.7869,4.7869,0,0,1,3.3125,1.1023,3.2437,3.2437,0,0,1,.8569,3.2016H120.84a1.494,1.494,0,0,0-.67-1.6883,3.0515,3.0515,0,0,0-1.5266-.33,3.4731,3.4731,0,0,0-1.79.4288,1.77,1.77,0,0,0-.8885,1.1964.9063.9063,0,0,0,.4016,1.0536,6.1945,6.1945,0,0,0,1.5986.5451l2.1514.5439a4.64,4.64,0,0,1,2.0445.9561,2.6872,2.6872,0,0,1,.6077,2.6865,4.9018,4.9018,0,0,1-2.0179,2.9956,6.86,6.86,0,0,1-4.1522,1.192,5.3093,5.3093,0,0,1-3.7944-1.1743,3.2419,3.2419,0,0,1-.7854-3.2271Z"/>
        <path class="bb15791e-7639-453a-b9d7-ef781463db29" d="M134.0006,289.4644l-1.3931,6.554H130l1.25-5.9192a2.4579,2.4579,0,0,0,.0449-1.1787q-.2143-.7512-1.2679-.75a2.2655,2.2655,0,0,0-2.0091,1.0979,4.3469,4.3469,0,0,0-.5622,1.4822l-1.1162,5.2678h-2.5358l2.0622-9.7146h2.4555l-.3035,1.42a5.8623,5.8623,0,0,1,1.161-1.08,3.8038,3.8038,0,0,1,2.116-.5894,3.1115,3.1115,0,0,1,2.2988.79A2.7687,2.7687,0,0,1,134.0006,289.4644Z"/>
        <path class="bb15791e-7639-453a-b9d7-ef781463db29" d="M139.25,296.3574q-2.5092,0-3.4149-1.5222a4.9354,4.9354,0,0,1-.4509-3.6647,7.1155,7.1155,0,0,1,2.0085-3.6525,5.5449,5.5449,0,0,1,4.0713-1.5444q2.5094,0,3.4111,1.5444a4.9782,4.9782,0,0,1,.4553,3.6525,7.0693,7.0693,0,0,1-2.0135,3.6647A5.5722,5.5722,0,0,1,139.25,296.3574Zm3.41-5.1869a3.3032,3.3032,0,0,0-.12-2.2544,1.6114,1.6114,0,0,0-1.5493-.791,2.5234,2.5234,0,0,0-1.8839.791,4.5082,4.5082,0,0,0-1.08,2.2544,3.3148,3.3148,0,0,0,.12,2.2589,1.6088,1.6088,0,0,0,1.5493.7943,2.5188,2.5188,0,0,0,1.8839-.7943A4.5393,4.5393,0,0,0,142.6606,291.1705Z"/>
        <path class="bb15791e-7639-453a-b9d7-ef781463db29" d="M156.1873,287.3042a2.135,2.135,0,0,1,.2548,1.12,13.9193,13.9193,0,0,1-.3079,1.88l-1.2142,5.7142h-2.599l1.25-5.9192a2.47,2.47,0,0,0,.0111-1.2684c-.1374-.452-.5318-.678-1.1787-.678a2.2565,2.2565,0,0,0-1.6751.6735,3.8129,3.8129,0,0,0-.9328,1.9243l-1.1161,5.2678h-2.5359l2.7857-13.1157h2.5347l-.99,4.6518a4.2147,4.2147,0,0,1,1.531-1.1832,4.1187,4.1187,0,0,1,1.6042-.3345,3.6873,3.6873,0,0,1,1.5709.3124A2.1253,2.1253,0,0,1,156.1873,287.3042Z"/>
        <path class="bb15791e-7639-453a-b9d7-ef781463db29" d="M161.5892,296.3574q-2.5077,0-3.4144-1.5222a4.9354,4.9354,0,0,1-.4509-3.6647,7.1112,7.1112,0,0,1,2.0085-3.6525,5.543,5.543,0,0,1,4.0713-1.5444q2.5093,0,3.4111,1.5444a4.9734,4.9734,0,0,1,.4553,3.6525,7.0726,7.0726,0,0,1-2.0129,3.6647A5.5749,5.5749,0,0,1,161.5892,296.3574ZM165,291.1705a3.3,3.3,0,0,0-.1207-2.2544,1.6091,1.6091,0,0,0-1.5488-.791,2.5212,2.5212,0,0,0-1.8833.791,4.5,4.5,0,0,0-1.0813,2.2544,3.3143,3.3143,0,0,0,.1208,2.2589,1.61,1.61,0,0,0,1.5487.7943,2.5192,2.5192,0,0,0,1.8845-.7943A4.5393,4.5393,0,0,0,165,291.1705Z"/>
        <path class="bb15791e-7639-453a-b9d7-ef781463db29" d="M183.6164,287.1967a2.4113,2.4113,0,0,1,.2858,1.2507,9.4839,9.4839,0,0,1-.2149,1.4369l-1.3217,6.1341h-2.6067l1.3128-6.1961a1.9753,1.9753,0,0,0,.0177-.9107q-.1961-.68-1.1068-.6791a1.8723,1.8723,0,0,0-1.6429.8752,3.3093,3.3093,0,0,0-.4464,1.1156l-1.2242,5.7951h-2.5624l1.2241-5.7951a3.094,3.094,0,0,0,.0887-1.2585q-.1695-.7046-1.1068-.7057a1.8873,1.8873,0,0,0-1.6163.7057,3.2792,3.2792,0,0,0-.4553,1.1965L171,296.0184h-2.58l2.0617-9.7146h2.4738l-.3035,1.42a5.5241,5.5241,0,0,1,1.1244-1.08,3.586,3.586,0,0,1,2.0362-.5717,2.6027,2.6027,0,0,1,1.705.4908,2.1771,2.1771,0,0,1,.5894,1.17,4.3629,4.3629,0,0,1,1.5089-1.26,4.3092,4.3092,0,0,1,1.83-.4011,3.0032,3.0032,0,0,1,1.2142.2493A2.1328,2.1328,0,0,1,183.6164,287.1967Z"/>
        <path class="bb15791e-7639-453a-b9d7-ef781463db29" d="M186.8213,286.286h2.58l-2.0628,9.7324h-2.58Zm2.8306-1.16h-2.58l.5-2.3486h2.58Z"/>
        <path class="bb15791e-7639-453a-b9d7-ef781463db29" d="M192.437,292.9109a1.4294,1.4294,0,0,0,.1518.965q.3571.5085,1.634.5085a3.0165,3.0165,0,0,0,1.2419-.2227.9538.9538,0,0,0,.5883-.67.5849.5849,0,0,0-.2227-.6514,12.2971,12.2971,0,0,0-2.4915-.7677,4.3038,4.3038,0,0,1-2.1071-1.027,1.8788,1.8788,0,0,1-.3036-1.75,3.9148,3.9148,0,0,1,1.55-2.3165,5.078,5.078,0,0,1,3.1828-.9693,4.69,4.69,0,0,1,2.8128.7278,2.5323,2.5323,0,0,1,.7855,2.5137h-2.5447a1.3313,1.3313,0,0,0-.1164-.7766,1.4285,1.4285,0,0,0-1.3216-.5184,2.3418,2.3418,0,0,0-1.2364.2592.9736.9736,0,0,0-.4774.6071.5248.5248,0,0,0,.2415.6337,13.6217,13.6217,0,0,0,2.4993.7057,3.8,3.8,0,0,1,2.045,1.08,2.0717,2.0717,0,0,1,.3656,1.83,3.84,3.84,0,0,1-1.58,2.3619,5.9185,5.9185,0,0,1-3.5185.9151,4.2116,4.2116,0,0,1-3.1828-.9683,2.647,2.647,0,0,1-.5761-2.4694Z"/>
        <path class="bb15791e-7639-453a-b9d7-ef781463db29" d="M210.0361,287.3042a2.135,2.135,0,0,1,.2548,1.12,13.97,13.97,0,0,1-.309,1.88l-1.2142,5.7142H206.17l1.25-5.9192a2.47,2.47,0,0,0,.01-1.2684q-.2061-.678-1.1788-.678a2.254,2.254,0,0,0-1.6739.6735,3.8136,3.8136,0,0,0-.9339,1.9243l-1.1156,5.2678h-2.5358l2.7862-13.1157h2.5347l-.99,4.6518a4.2049,4.2049,0,0,1,1.531-1.1832,4.1094,4.1094,0,0,1,1.6031-.3345,3.6838,3.6838,0,0,1,1.5709.3124A2.1228,2.1228,0,0,1,210.0361,287.3042Z"/>
        <path class="bb15791e-7639-453a-b9d7-ef781463db29" d="M220.205,284.2332a6.7548,6.7548,0,0,1,4.438-1.6252q3.3219,0,4.3926,2.178a4.0259,4.0259,0,0,1,.3844,2.4561h-2.7507a2.9488,2.9488,0,0,0-.3834-1.4291,2.2525,2.2525,0,0,0-2.0362-.8575,3.4812,3.4812,0,0,0-2.6244,1.21,7.0645,7.0645,0,0,0-1.59,3.4243,4.5754,4.5754,0,0,0,.2061,3.3169,2.2814,2.2814,0,0,0,2.0894,1.1034,3.3034,3.3034,0,0,0,2.4106-.9472,5.3449,5.3449,0,0,0,1.017-1.5266h2.7231a7.7774,7.7774,0,0,1-2.5669,3.5,6.4556,6.4556,0,0,1-4.0491,1.3482,4.5789,4.5789,0,0,1-4.08-1.8213,6.4031,6.4031,0,0,1-.5528-5.0174A9.1085,9.1085,0,0,1,220.205,284.2332Z"/>
        <path class="bb15791e-7639-453a-b9d7-ef781463db29" d="M233.7229,296.3574q-2.5077,0-3.4144-1.5222a4.9354,4.9354,0,0,1-.4509-3.6647,7.1112,7.1112,0,0,1,2.0085-3.6525,5.543,5.543,0,0,1,4.0713-1.5444q2.5094,0,3.4111,1.5444a4.9734,4.9734,0,0,1,.4553,3.6525,7.0726,7.0726,0,0,1-2.0129,3.6647A5.5749,5.5749,0,0,1,233.7229,296.3574Zm3.411-5.1869a3.3,3.3,0,0,0-.1207-2.2544,1.6091,1.6091,0,0,0-1.5488-.791,2.5212,2.5212,0,0,0-1.8833.791,4.5,4.5,0,0,0-1.0813,2.2544,3.3143,3.3143,0,0,0,.1208,2.2589,1.61,1.61,0,0,0,1.5487.7943,2.5192,2.5192,0,0,0,1.8845-.7943A4.5393,4.5393,0,0,0,237.1339,291.1705Z"/>
        <path class="bb15791e-7639-453a-b9d7-ef781463db29" d="M245.1957,286.286l-1.2408,5.8661a2.9406,2.9406,0,0,0-.0709,1.2507q.1878.7412,1.2053.7412a2.2752,2.2752,0,0,0,2.0085-1.0536,4.382,4.382,0,0,0,.5717-1.51l1.1244-5.2944h2.5813l-2.0628,9.7324h-2.4738l.2858-1.3748c-.03.03-.1063.1185-.2315.2681a2.3865,2.3865,0,0,1-.42.3922,4.6572,4.6572,0,0,1-1.3172.7322,4.3509,4.3509,0,0,1-1.3527.1961q-2.16,0-2.58-1.5532a5.7421,5.7421,0,0,1,.1251-2.5269l1.2408-5.8661Z"/>
        <path class="bb15791e-7639-453a-b9d7-ef781463db29" d="M261.9817,289.4644l-1.3926,6.554h-2.6078l1.2507-5.9192a2.4562,2.4562,0,0,0,.0443-1.1787q-.2143-.7512-1.2685-.75a2.2645,2.2645,0,0,0-2.0085,1.0979,4.3489,4.3489,0,0,0-.5628,1.4822l-1.1156,5.2678h-2.5358l2.0628-9.7146h2.455l-.3036,1.42a5.8761,5.8761,0,0,1,1.161-1.08,3.8052,3.8052,0,0,1,2.116-.5894,3.1105,3.1105,0,0,1,2.2988.79A2.767,2.767,0,0,1,261.9817,289.4644Z"/>
        <path class="bb15791e-7639-453a-b9d7-ef781463db29" d="M263.598,288.1882l.3844-1.8124H265.34l.5805-2.7142h2.517l-.5794,2.7142h1.58l-.3833,1.8124h-1.5809l-1.0978,5.1426q-.1263.5982-.0045.7456.12.1479.8974.1473c.0764,0,.1584-.0011.2448-.0044s.175-.0078.2637-.0133l-.411,1.9022-1.2142.0443q-1.813.0615-2.33-.6249a1.6605,1.6605,0,0,1-.1429-1.3482l1.2762-5.9912Z"/>
        <path class="bb15791e-7639-453a-b9d7-ef781463db29" d="M271.1247,286.286h2.58l-2.0628,9.7324h-2.58Zm2.83-1.16h-2.58l.5-2.3486h2.58Z"/>
        <path class="bb15791e-7639-453a-b9d7-ef781463db29" d="M283.4549,287.92a4.1013,4.1013,0,0,1,.3124,2.0085,12.3684,12.3684,0,0,1-.3212,1.9288h-6.66a2.007,2.007,0,0,0,.4819,2.0539,1.8178,1.8178,0,0,0,1.1876.3656,2.2112,2.2112,0,0,0,1.3749-.4465,3.1009,3.1009,0,0,0,.6159-.6691h2.5979a4.2927,4.2927,0,0,1-1.2762,1.7593,5.433,5.433,0,0,1-3.8032,1.4191,4.0343,4.0343,0,0,1-3.0233-1.1965q-1.1649-1.1964-.5927-3.8929a6.7848,6.7848,0,0,1,2.1016-3.8752,5.3766,5.3766,0,0,1,3.6126-1.3472,4.4977,4.4977,0,0,1,2.0927.4553A2.7872,2.7872,0,0,1,283.4549,287.92Zm-6.2493,2.2589h3.955a1.8638,1.8638,0,0,0-.29-1.531,1.5543,1.5543,0,0,0-1.254-.5229,2.1157,2.1157,0,0,0-1.4868.5539A3.5242,3.5242,0,0,0,277.2056,290.179Z"/>
        <path class="bb15791e-7639-453a-b9d7-ef781463db29" d="M286.91,292.9109a1.4288,1.4288,0,0,0,.1518.965q.3572.5085,1.634.5085a3.0165,3.0165,0,0,0,1.2419-.2227.9538.9538,0,0,0,.5883-.67.5849.5849,0,0,0-.2227-.6514,12.2971,12.2971,0,0,0-2.4915-.7677,4.3038,4.3038,0,0,1-2.1071-1.027,1.8788,1.8788,0,0,1-.3036-1.75,3.9148,3.9148,0,0,1,1.55-2.3165,5.078,5.078,0,0,1,3.1828-.9693,4.69,4.69,0,0,1,2.8128.7278,2.5323,2.5323,0,0,1,.7855,2.5137h-2.5447a1.3313,1.3313,0,0,0-.1164-.7766,1.4285,1.4285,0,0,0-1.3216-.5184,2.3418,2.3418,0,0,0-1.2364.2592.9736.9736,0,0,0-.4774.6071.5248.5248,0,0,0,.2415.6337,13.6222,13.6222,0,0,0,2.4992.7057,3.8,3.8,0,0,1,2.0451,1.08,2.0717,2.0717,0,0,1,.3656,1.83,3.84,3.84,0,0,1-1.58,2.3619,5.9185,5.9185,0,0,1-3.5185.9151,4.2116,4.2116,0,0,1-3.1828-.9683,2.647,2.647,0,0,1-.5761-2.4694Z"/>
      </g>
    </g>
  </g>
</svg>
